<mxfile host="app.diagrams.net" modified="2024-04-29T22:15:58.485Z" agent="Mozilla/5.0 (Windows NT 10.0; Win64; x64; rv:125.0) Gecko/20100101 Firefox/125.0" etag="pXyAREUYbZn-cNTErIyq" version="24.3.1" type="github">
  <diagram name="Page-1" id="n9SiTOporzqYfKtoPSIB">
    <mxGraphModel dx="1103" dy="631" grid="1" gridSize="10" guides="1" tooltips="1" connect="1" arrows="1" fold="1" page="1" pageScale="1" pageWidth="850" pageHeight="1100" math="0" shadow="0">
      <root>
        <mxCell id="0" />
        <mxCell id="1" parent="0" />
        <mxCell id="DMiEMKyrubhrGU7H5FuC-1" value="heroes" style="swimlane;fontStyle=0;childLayout=stackLayout;horizontal=1;startSize=30;horizontalStack=0;resizeParent=1;resizeParentMax=0;resizeLast=0;collapsible=1;marginBottom=0;whiteSpace=wrap;html=1;" vertex="1" parent="1">
          <mxGeometry x="20" y="30" width="140" height="240" as="geometry" />
        </mxCell>
        <mxCell id="DMiEMKyrubhrGU7H5FuC-2" value="id" style="text;strokeColor=none;fillColor=none;align=left;verticalAlign=middle;spacingLeft=4;spacingRight=4;overflow=hidden;points=[[0,0.5],[1,0.5]];portConstraint=eastwest;rotatable=0;whiteSpace=wrap;html=1;" vertex="1" parent="DMiEMKyrubhrGU7H5FuC-1">
          <mxGeometry y="30" width="140" height="30" as="geometry" />
        </mxCell>
        <mxCell id="DMiEMKyrubhrGU7H5FuC-7" value="name" style="text;strokeColor=none;fillColor=none;align=left;verticalAlign=middle;spacingLeft=4;spacingRight=4;overflow=hidden;points=[[0,0.5],[1,0.5]];portConstraint=eastwest;rotatable=0;whiteSpace=wrap;html=1;" vertex="1" parent="DMiEMKyrubhrGU7H5FuC-1">
          <mxGeometry y="60" width="140" height="30" as="geometry" />
        </mxCell>
        <mxCell id="DMiEMKyrubhrGU7H5FuC-8" value="localized_name" style="text;strokeColor=none;fillColor=none;align=left;verticalAlign=middle;spacingLeft=4;spacingRight=4;overflow=hidden;points=[[0,0.5],[1,0.5]];portConstraint=eastwest;rotatable=0;whiteSpace=wrap;html=1;" vertex="1" parent="DMiEMKyrubhrGU7H5FuC-1">
          <mxGeometry y="90" width="140" height="30" as="geometry" />
        </mxCell>
        <mxCell id="DMiEMKyrubhrGU7H5FuC-6" value="primary_attr" style="text;strokeColor=none;fillColor=none;align=left;verticalAlign=middle;spacingLeft=4;spacingRight=4;overflow=hidden;points=[[0,0.5],[1,0.5]];portConstraint=eastwest;rotatable=0;whiteSpace=wrap;html=1;" vertex="1" parent="DMiEMKyrubhrGU7H5FuC-1">
          <mxGeometry y="120" width="140" height="30" as="geometry" />
        </mxCell>
        <mxCell id="DMiEMKyrubhrGU7H5FuC-5" value="attack_type" style="text;strokeColor=none;fillColor=none;align=left;verticalAlign=middle;spacingLeft=4;spacingRight=4;overflow=hidden;points=[[0,0.5],[1,0.5]];portConstraint=eastwest;rotatable=0;whiteSpace=wrap;html=1;" vertex="1" parent="DMiEMKyrubhrGU7H5FuC-1">
          <mxGeometry y="150" width="140" height="30" as="geometry" />
        </mxCell>
        <mxCell id="DMiEMKyrubhrGU7H5FuC-3" value="roles" style="text;strokeColor=none;fillColor=none;align=left;verticalAlign=middle;spacingLeft=4;spacingRight=4;overflow=hidden;points=[[0,0.5],[1,0.5]];portConstraint=eastwest;rotatable=0;whiteSpace=wrap;html=1;" vertex="1" parent="DMiEMKyrubhrGU7H5FuC-1">
          <mxGeometry y="180" width="140" height="30" as="geometry" />
        </mxCell>
        <mxCell id="DMiEMKyrubhrGU7H5FuC-4" value="legs" style="text;strokeColor=none;fillColor=none;align=left;verticalAlign=middle;spacingLeft=4;spacingRight=4;overflow=hidden;points=[[0,0.5],[1,0.5]];portConstraint=eastwest;rotatable=0;whiteSpace=wrap;html=1;" vertex="1" parent="DMiEMKyrubhrGU7H5FuC-1">
          <mxGeometry y="210" width="140" height="30" as="geometry" />
        </mxCell>
        <mxCell id="DMiEMKyrubhrGU7H5FuC-9" value="herostats" style="swimlane;fontStyle=0;childLayout=stackLayout;horizontal=1;startSize=30;horizontalStack=0;resizeParent=1;resizeParentMax=0;resizeLast=0;collapsible=1;marginBottom=0;whiteSpace=wrap;html=1;" vertex="1" parent="1">
          <mxGeometry x="470" y="30" width="140" height="1860" as="geometry" />
        </mxCell>
        <mxCell id="DMiEMKyrubhrGU7H5FuC-10" value="id" style="text;strokeColor=none;fillColor=none;align=left;verticalAlign=middle;spacingLeft=4;spacingRight=4;overflow=hidden;points=[[0,0.5],[1,0.5]];portConstraint=eastwest;rotatable=0;whiteSpace=wrap;html=1;" vertex="1" parent="DMiEMKyrubhrGU7H5FuC-9">
          <mxGeometry y="30" width="140" height="30" as="geometry" />
        </mxCell>
        <mxCell id="DMiEMKyrubhrGU7H5FuC-11" value="name" style="text;strokeColor=none;fillColor=none;align=left;verticalAlign=middle;spacingLeft=4;spacingRight=4;overflow=hidden;points=[[0,0.5],[1,0.5]];portConstraint=eastwest;rotatable=0;whiteSpace=wrap;html=1;" vertex="1" parent="DMiEMKyrubhrGU7H5FuC-9">
          <mxGeometry y="60" width="140" height="30" as="geometry" />
        </mxCell>
        <mxCell id="DMiEMKyrubhrGU7H5FuC-13" value="primary_attr" style="text;strokeColor=none;fillColor=none;align=left;verticalAlign=middle;spacingLeft=4;spacingRight=4;overflow=hidden;points=[[0,0.5],[1,0.5]];portConstraint=eastwest;rotatable=0;whiteSpace=wrap;html=1;" vertex="1" parent="DMiEMKyrubhrGU7H5FuC-9">
          <mxGeometry y="90" width="140" height="30" as="geometry" />
        </mxCell>
        <mxCell id="DMiEMKyrubhrGU7H5FuC-14" value="attack_type" style="text;strokeColor=none;fillColor=none;align=left;verticalAlign=middle;spacingLeft=4;spacingRight=4;overflow=hidden;points=[[0,0.5],[1,0.5]];portConstraint=eastwest;rotatable=0;whiteSpace=wrap;html=1;" vertex="1" parent="DMiEMKyrubhrGU7H5FuC-9">
          <mxGeometry y="120" width="140" height="30" as="geometry" />
        </mxCell>
        <mxCell id="DMiEMKyrubhrGU7H5FuC-15" value="roles" style="text;strokeColor=none;fillColor=none;align=left;verticalAlign=middle;spacingLeft=4;spacingRight=4;overflow=hidden;points=[[0,0.5],[1,0.5]];portConstraint=eastwest;rotatable=0;whiteSpace=wrap;html=1;" vertex="1" parent="DMiEMKyrubhrGU7H5FuC-9">
          <mxGeometry y="150" width="140" height="30" as="geometry" />
        </mxCell>
        <mxCell id="DMiEMKyrubhrGU7H5FuC-12" value="img" style="text;strokeColor=none;fillColor=none;align=left;verticalAlign=middle;spacingLeft=4;spacingRight=4;overflow=hidden;points=[[0,0.5],[1,0.5]];portConstraint=eastwest;rotatable=0;whiteSpace=wrap;html=1;" vertex="1" parent="DMiEMKyrubhrGU7H5FuC-9">
          <mxGeometry y="180" width="140" height="30" as="geometry" />
        </mxCell>
        <mxCell id="DMiEMKyrubhrGU7H5FuC-16" value="icon" style="text;strokeColor=none;fillColor=none;align=left;verticalAlign=middle;spacingLeft=4;spacingRight=4;overflow=hidden;points=[[0,0.5],[1,0.5]];portConstraint=eastwest;rotatable=0;whiteSpace=wrap;html=1;" vertex="1" parent="DMiEMKyrubhrGU7H5FuC-9">
          <mxGeometry y="210" width="140" height="30" as="geometry" />
        </mxCell>
        <mxCell id="DMiEMKyrubhrGU7H5FuC-17" value="base_healt" style="text;strokeColor=none;fillColor=none;align=left;verticalAlign=middle;spacingLeft=4;spacingRight=4;overflow=hidden;points=[[0,0.5],[1,0.5]];portConstraint=eastwest;rotatable=0;whiteSpace=wrap;html=1;" vertex="1" parent="DMiEMKyrubhrGU7H5FuC-9">
          <mxGeometry y="240" width="140" height="30" as="geometry" />
        </mxCell>
        <mxCell id="DMiEMKyrubhrGU7H5FuC-37" value="base_healt_regen" style="text;strokeColor=none;fillColor=none;align=left;verticalAlign=middle;spacingLeft=4;spacingRight=4;overflow=hidden;points=[[0,0.5],[1,0.5]];portConstraint=eastwest;rotatable=0;whiteSpace=wrap;html=1;" vertex="1" parent="DMiEMKyrubhrGU7H5FuC-9">
          <mxGeometry y="270" width="140" height="30" as="geometry" />
        </mxCell>
        <mxCell id="DMiEMKyrubhrGU7H5FuC-36" value="base_mana" style="text;strokeColor=none;fillColor=none;align=left;verticalAlign=middle;spacingLeft=4;spacingRight=4;overflow=hidden;points=[[0,0.5],[1,0.5]];portConstraint=eastwest;rotatable=0;whiteSpace=wrap;html=1;" vertex="1" parent="DMiEMKyrubhrGU7H5FuC-9">
          <mxGeometry y="300" width="140" height="30" as="geometry" />
        </mxCell>
        <mxCell id="DMiEMKyrubhrGU7H5FuC-35" value="base_mana_regen" style="text;strokeColor=none;fillColor=none;align=left;verticalAlign=middle;spacingLeft=4;spacingRight=4;overflow=hidden;points=[[0,0.5],[1,0.5]];portConstraint=eastwest;rotatable=0;whiteSpace=wrap;html=1;" vertex="1" parent="DMiEMKyrubhrGU7H5FuC-9">
          <mxGeometry y="330" width="140" height="30" as="geometry" />
        </mxCell>
        <mxCell id="DMiEMKyrubhrGU7H5FuC-34" value="base_armor" style="text;strokeColor=none;fillColor=none;align=left;verticalAlign=middle;spacingLeft=4;spacingRight=4;overflow=hidden;points=[[0,0.5],[1,0.5]];portConstraint=eastwest;rotatable=0;whiteSpace=wrap;html=1;" vertex="1" parent="DMiEMKyrubhrGU7H5FuC-9">
          <mxGeometry y="360" width="140" height="30" as="geometry" />
        </mxCell>
        <mxCell id="DMiEMKyrubhrGU7H5FuC-33" value="base_mr" style="text;strokeColor=none;fillColor=none;align=left;verticalAlign=middle;spacingLeft=4;spacingRight=4;overflow=hidden;points=[[0,0.5],[1,0.5]];portConstraint=eastwest;rotatable=0;whiteSpace=wrap;html=1;" vertex="1" parent="DMiEMKyrubhrGU7H5FuC-9">
          <mxGeometry y="390" width="140" height="30" as="geometry" />
        </mxCell>
        <mxCell id="DMiEMKyrubhrGU7H5FuC-32" value="&lt;div&gt;base_attack_min&lt;span style=&quot;white-space: pre;&quot;&gt;&#x9;&lt;/span&gt;&lt;/div&gt;" style="text;strokeColor=none;fillColor=none;align=left;verticalAlign=middle;spacingLeft=4;spacingRight=4;overflow=hidden;points=[[0,0.5],[1,0.5]];portConstraint=eastwest;rotatable=0;whiteSpace=wrap;html=1;" vertex="1" parent="DMiEMKyrubhrGU7H5FuC-9">
          <mxGeometry y="420" width="140" height="30" as="geometry" />
        </mxCell>
        <mxCell id="DMiEMKyrubhrGU7H5FuC-31" value="base_attack_max" style="text;strokeColor=none;fillColor=none;align=left;verticalAlign=middle;spacingLeft=4;spacingRight=4;overflow=hidden;points=[[0,0.5],[1,0.5]];portConstraint=eastwest;rotatable=0;whiteSpace=wrap;html=1;" vertex="1" parent="DMiEMKyrubhrGU7H5FuC-9">
          <mxGeometry y="450" width="140" height="30" as="geometry" />
        </mxCell>
        <mxCell id="DMiEMKyrubhrGU7H5FuC-38" value="base_attack_max" style="text;strokeColor=none;fillColor=none;align=left;verticalAlign=middle;spacingLeft=4;spacingRight=4;overflow=hidden;points=[[0,0.5],[1,0.5]];portConstraint=eastwest;rotatable=0;whiteSpace=wrap;html=1;" vertex="1" parent="DMiEMKyrubhrGU7H5FuC-9">
          <mxGeometry y="480" width="140" height="30" as="geometry" />
        </mxCell>
        <mxCell id="DMiEMKyrubhrGU7H5FuC-30" value="base_str" style="text;strokeColor=none;fillColor=none;align=left;verticalAlign=middle;spacingLeft=4;spacingRight=4;overflow=hidden;points=[[0,0.5],[1,0.5]];portConstraint=eastwest;rotatable=0;whiteSpace=wrap;html=1;" vertex="1" parent="DMiEMKyrubhrGU7H5FuC-9">
          <mxGeometry y="510" width="140" height="30" as="geometry" />
        </mxCell>
        <mxCell id="DMiEMKyrubhrGU7H5FuC-29" value="base_agi" style="text;strokeColor=none;fillColor=none;align=left;verticalAlign=middle;spacingLeft=4;spacingRight=4;overflow=hidden;points=[[0,0.5],[1,0.5]];portConstraint=eastwest;rotatable=0;whiteSpace=wrap;html=1;" vertex="1" parent="DMiEMKyrubhrGU7H5FuC-9">
          <mxGeometry y="540" width="140" height="30" as="geometry" />
        </mxCell>
        <mxCell id="DMiEMKyrubhrGU7H5FuC-28" value="base_int" style="text;strokeColor=none;fillColor=none;align=left;verticalAlign=middle;spacingLeft=4;spacingRight=4;overflow=hidden;points=[[0,0.5],[1,0.5]];portConstraint=eastwest;rotatable=0;whiteSpace=wrap;html=1;" vertex="1" parent="DMiEMKyrubhrGU7H5FuC-9">
          <mxGeometry y="570" width="140" height="30" as="geometry" />
        </mxCell>
        <mxCell id="DMiEMKyrubhrGU7H5FuC-27" value="str_gain" style="text;strokeColor=none;fillColor=none;align=left;verticalAlign=middle;spacingLeft=4;spacingRight=4;overflow=hidden;points=[[0,0.5],[1,0.5]];portConstraint=eastwest;rotatable=0;whiteSpace=wrap;html=1;" vertex="1" parent="DMiEMKyrubhrGU7H5FuC-9">
          <mxGeometry y="600" width="140" height="30" as="geometry" />
        </mxCell>
        <mxCell id="DMiEMKyrubhrGU7H5FuC-26" value="agi_gain" style="text;strokeColor=none;fillColor=none;align=left;verticalAlign=middle;spacingLeft=4;spacingRight=4;overflow=hidden;points=[[0,0.5],[1,0.5]];portConstraint=eastwest;rotatable=0;whiteSpace=wrap;html=1;" vertex="1" parent="DMiEMKyrubhrGU7H5FuC-9">
          <mxGeometry y="630" width="140" height="30" as="geometry" />
        </mxCell>
        <mxCell id="DMiEMKyrubhrGU7H5FuC-25" value="int_gain" style="text;strokeColor=none;fillColor=none;align=left;verticalAlign=middle;spacingLeft=4;spacingRight=4;overflow=hidden;points=[[0,0.5],[1,0.5]];portConstraint=eastwest;rotatable=0;whiteSpace=wrap;html=1;" vertex="1" parent="DMiEMKyrubhrGU7H5FuC-9">
          <mxGeometry y="660" width="140" height="30" as="geometry" />
        </mxCell>
        <mxCell id="DMiEMKyrubhrGU7H5FuC-24" value="attack_range" style="text;strokeColor=none;fillColor=none;align=left;verticalAlign=middle;spacingLeft=4;spacingRight=4;overflow=hidden;points=[[0,0.5],[1,0.5]];portConstraint=eastwest;rotatable=0;whiteSpace=wrap;html=1;" vertex="1" parent="DMiEMKyrubhrGU7H5FuC-9">
          <mxGeometry y="690" width="140" height="30" as="geometry" />
        </mxCell>
        <mxCell id="DMiEMKyrubhrGU7H5FuC-23" value="projectile_speed" style="text;strokeColor=none;fillColor=none;align=left;verticalAlign=middle;spacingLeft=4;spacingRight=4;overflow=hidden;points=[[0,0.5],[1,0.5]];portConstraint=eastwest;rotatable=0;whiteSpace=wrap;html=1;" vertex="1" parent="DMiEMKyrubhrGU7H5FuC-9">
          <mxGeometry y="720" width="140" height="30" as="geometry" />
        </mxCell>
        <mxCell id="DMiEMKyrubhrGU7H5FuC-22" value="attack_rate" style="text;strokeColor=none;fillColor=none;align=left;verticalAlign=middle;spacingLeft=4;spacingRight=4;overflow=hidden;points=[[0,0.5],[1,0.5]];portConstraint=eastwest;rotatable=0;whiteSpace=wrap;html=1;" vertex="1" parent="DMiEMKyrubhrGU7H5FuC-9">
          <mxGeometry y="750" width="140" height="30" as="geometry" />
        </mxCell>
        <mxCell id="DMiEMKyrubhrGU7H5FuC-21" value="base_attack_time" style="text;strokeColor=none;fillColor=none;align=left;verticalAlign=middle;spacingLeft=4;spacingRight=4;overflow=hidden;points=[[0,0.5],[1,0.5]];portConstraint=eastwest;rotatable=0;whiteSpace=wrap;html=1;" vertex="1" parent="DMiEMKyrubhrGU7H5FuC-9">
          <mxGeometry y="780" width="140" height="30" as="geometry" />
        </mxCell>
        <mxCell id="DMiEMKyrubhrGU7H5FuC-20" value="attack_point" style="text;strokeColor=none;fillColor=none;align=left;verticalAlign=middle;spacingLeft=4;spacingRight=4;overflow=hidden;points=[[0,0.5],[1,0.5]];portConstraint=eastwest;rotatable=0;whiteSpace=wrap;html=1;" vertex="1" parent="DMiEMKyrubhrGU7H5FuC-9">
          <mxGeometry y="810" width="140" height="30" as="geometry" />
        </mxCell>
        <mxCell id="DMiEMKyrubhrGU7H5FuC-19" value="move_speed" style="text;strokeColor=none;fillColor=none;align=left;verticalAlign=middle;spacingLeft=4;spacingRight=4;overflow=hidden;points=[[0,0.5],[1,0.5]];portConstraint=eastwest;rotatable=0;whiteSpace=wrap;html=1;" vertex="1" parent="DMiEMKyrubhrGU7H5FuC-9">
          <mxGeometry y="840" width="140" height="30" as="geometry" />
        </mxCell>
        <mxCell id="DMiEMKyrubhrGU7H5FuC-18" value="&lt;div&gt;turn_rate&lt;/div&gt;" style="text;strokeColor=none;fillColor=none;align=left;verticalAlign=middle;spacingLeft=4;spacingRight=4;overflow=hidden;points=[[0,0.5],[1,0.5]];portConstraint=eastwest;rotatable=0;whiteSpace=wrap;html=1;" vertex="1" parent="DMiEMKyrubhrGU7H5FuC-9">
          <mxGeometry y="870" width="140" height="30" as="geometry" />
        </mxCell>
        <mxCell id="DMiEMKyrubhrGU7H5FuC-39" value="cm_enabled" style="text;strokeColor=none;fillColor=none;align=left;verticalAlign=middle;spacingLeft=4;spacingRight=4;overflow=hidden;points=[[0,0.5],[1,0.5]];portConstraint=eastwest;rotatable=0;whiteSpace=wrap;html=1;" vertex="1" parent="DMiEMKyrubhrGU7H5FuC-9">
          <mxGeometry y="900" width="140" height="30" as="geometry" />
        </mxCell>
        <mxCell id="DMiEMKyrubhrGU7H5FuC-40" value="legs" style="text;strokeColor=none;fillColor=none;align=left;verticalAlign=middle;spacingLeft=4;spacingRight=4;overflow=hidden;points=[[0,0.5],[1,0.5]];portConstraint=eastwest;rotatable=0;whiteSpace=wrap;html=1;" vertex="1" parent="DMiEMKyrubhrGU7H5FuC-9">
          <mxGeometry y="930" width="140" height="30" as="geometry" />
        </mxCell>
        <mxCell id="DMiEMKyrubhrGU7H5FuC-41" value="day_vision" style="text;strokeColor=none;fillColor=none;align=left;verticalAlign=middle;spacingLeft=4;spacingRight=4;overflow=hidden;points=[[0,0.5],[1,0.5]];portConstraint=eastwest;rotatable=0;whiteSpace=wrap;html=1;" vertex="1" parent="DMiEMKyrubhrGU7H5FuC-9">
          <mxGeometry y="960" width="140" height="30" as="geometry" />
        </mxCell>
        <mxCell id="DMiEMKyrubhrGU7H5FuC-42" value="night_vision" style="text;strokeColor=none;fillColor=none;align=left;verticalAlign=middle;spacingLeft=4;spacingRight=4;overflow=hidden;points=[[0,0.5],[1,0.5]];portConstraint=eastwest;rotatable=0;whiteSpace=wrap;html=1;" vertex="1" parent="DMiEMKyrubhrGU7H5FuC-9">
          <mxGeometry y="990" width="140" height="30" as="geometry" />
        </mxCell>
        <mxCell id="DMiEMKyrubhrGU7H5FuC-43" value="localized_name" style="text;strokeColor=none;fillColor=none;align=left;verticalAlign=middle;spacingLeft=4;spacingRight=4;overflow=hidden;points=[[0,0.5],[1,0.5]];portConstraint=eastwest;rotatable=0;whiteSpace=wrap;html=1;" vertex="1" parent="DMiEMKyrubhrGU7H5FuC-9">
          <mxGeometry y="1020" width="140" height="30" as="geometry" />
        </mxCell>
        <mxCell id="DMiEMKyrubhrGU7H5FuC-44" value="1_pick" style="text;strokeColor=none;fillColor=none;align=left;verticalAlign=middle;spacingLeft=4;spacingRight=4;overflow=hidden;points=[[0,0.5],[1,0.5]];portConstraint=eastwest;rotatable=0;whiteSpace=wrap;html=1;" vertex="1" parent="DMiEMKyrubhrGU7H5FuC-9">
          <mxGeometry y="1050" width="140" height="30" as="geometry" />
        </mxCell>
        <mxCell id="DMiEMKyrubhrGU7H5FuC-45" value="1_win" style="text;strokeColor=none;fillColor=none;align=left;verticalAlign=middle;spacingLeft=4;spacingRight=4;overflow=hidden;points=[[0,0.5],[1,0.5]];portConstraint=eastwest;rotatable=0;whiteSpace=wrap;html=1;" vertex="1" parent="DMiEMKyrubhrGU7H5FuC-9">
          <mxGeometry y="1080" width="140" height="30" as="geometry" />
        </mxCell>
        <mxCell id="DMiEMKyrubhrGU7H5FuC-46" value="2_pick" style="text;strokeColor=none;fillColor=none;align=left;verticalAlign=middle;spacingLeft=4;spacingRight=4;overflow=hidden;points=[[0,0.5],[1,0.5]];portConstraint=eastwest;rotatable=0;whiteSpace=wrap;html=1;" vertex="1" parent="DMiEMKyrubhrGU7H5FuC-9">
          <mxGeometry y="1110" width="140" height="30" as="geometry" />
        </mxCell>
        <mxCell id="DMiEMKyrubhrGU7H5FuC-47" value="2_win" style="text;strokeColor=none;fillColor=none;align=left;verticalAlign=middle;spacingLeft=4;spacingRight=4;overflow=hidden;points=[[0,0.5],[1,0.5]];portConstraint=eastwest;rotatable=0;whiteSpace=wrap;html=1;" vertex="1" parent="DMiEMKyrubhrGU7H5FuC-9">
          <mxGeometry y="1140" width="140" height="30" as="geometry" />
        </mxCell>
        <mxCell id="DMiEMKyrubhrGU7H5FuC-48" value="3_pick" style="text;strokeColor=none;fillColor=none;align=left;verticalAlign=middle;spacingLeft=4;spacingRight=4;overflow=hidden;points=[[0,0.5],[1,0.5]];portConstraint=eastwest;rotatable=0;whiteSpace=wrap;html=1;" vertex="1" parent="DMiEMKyrubhrGU7H5FuC-9">
          <mxGeometry y="1170" width="140" height="30" as="geometry" />
        </mxCell>
        <mxCell id="DMiEMKyrubhrGU7H5FuC-49" value="3_win" style="text;strokeColor=none;fillColor=none;align=left;verticalAlign=middle;spacingLeft=4;spacingRight=4;overflow=hidden;points=[[0,0.5],[1,0.5]];portConstraint=eastwest;rotatable=0;whiteSpace=wrap;html=1;" vertex="1" parent="DMiEMKyrubhrGU7H5FuC-9">
          <mxGeometry y="1200" width="140" height="30" as="geometry" />
        </mxCell>
        <mxCell id="DMiEMKyrubhrGU7H5FuC-50" value="4_pick" style="text;strokeColor=none;fillColor=none;align=left;verticalAlign=middle;spacingLeft=4;spacingRight=4;overflow=hidden;points=[[0,0.5],[1,0.5]];portConstraint=eastwest;rotatable=0;whiteSpace=wrap;html=1;" vertex="1" parent="DMiEMKyrubhrGU7H5FuC-9">
          <mxGeometry y="1230" width="140" height="30" as="geometry" />
        </mxCell>
        <mxCell id="DMiEMKyrubhrGU7H5FuC-51" value="4_win" style="text;strokeColor=none;fillColor=none;align=left;verticalAlign=middle;spacingLeft=4;spacingRight=4;overflow=hidden;points=[[0,0.5],[1,0.5]];portConstraint=eastwest;rotatable=0;whiteSpace=wrap;html=1;" vertex="1" parent="DMiEMKyrubhrGU7H5FuC-9">
          <mxGeometry y="1260" width="140" height="30" as="geometry" />
        </mxCell>
        <mxCell id="DMiEMKyrubhrGU7H5FuC-52" value="5_pick" style="text;strokeColor=none;fillColor=none;align=left;verticalAlign=middle;spacingLeft=4;spacingRight=4;overflow=hidden;points=[[0,0.5],[1,0.5]];portConstraint=eastwest;rotatable=0;whiteSpace=wrap;html=1;" vertex="1" parent="DMiEMKyrubhrGU7H5FuC-9">
          <mxGeometry y="1290" width="140" height="30" as="geometry" />
        </mxCell>
        <mxCell id="DMiEMKyrubhrGU7H5FuC-53" value="5_win" style="text;strokeColor=none;fillColor=none;align=left;verticalAlign=middle;spacingLeft=4;spacingRight=4;overflow=hidden;points=[[0,0.5],[1,0.5]];portConstraint=eastwest;rotatable=0;whiteSpace=wrap;html=1;" vertex="1" parent="DMiEMKyrubhrGU7H5FuC-9">
          <mxGeometry y="1320" width="140" height="30" as="geometry" />
        </mxCell>
        <mxCell id="DMiEMKyrubhrGU7H5FuC-54" value="6_pick" style="text;strokeColor=none;fillColor=none;align=left;verticalAlign=middle;spacingLeft=4;spacingRight=4;overflow=hidden;points=[[0,0.5],[1,0.5]];portConstraint=eastwest;rotatable=0;whiteSpace=wrap;html=1;" vertex="1" parent="DMiEMKyrubhrGU7H5FuC-9">
          <mxGeometry y="1350" width="140" height="30" as="geometry" />
        </mxCell>
        <mxCell id="DMiEMKyrubhrGU7H5FuC-55" value="6_win" style="text;strokeColor=none;fillColor=none;align=left;verticalAlign=middle;spacingLeft=4;spacingRight=4;overflow=hidden;points=[[0,0.5],[1,0.5]];portConstraint=eastwest;rotatable=0;whiteSpace=wrap;html=1;" vertex="1" parent="DMiEMKyrubhrGU7H5FuC-9">
          <mxGeometry y="1380" width="140" height="30" as="geometry" />
        </mxCell>
        <mxCell id="DMiEMKyrubhrGU7H5FuC-56" value="7_pick" style="text;strokeColor=none;fillColor=none;align=left;verticalAlign=middle;spacingLeft=4;spacingRight=4;overflow=hidden;points=[[0,0.5],[1,0.5]];portConstraint=eastwest;rotatable=0;whiteSpace=wrap;html=1;" vertex="1" parent="DMiEMKyrubhrGU7H5FuC-9">
          <mxGeometry y="1410" width="140" height="30" as="geometry" />
        </mxCell>
        <mxCell id="DMiEMKyrubhrGU7H5FuC-57" value="7_win" style="text;strokeColor=none;fillColor=none;align=left;verticalAlign=middle;spacingLeft=4;spacingRight=4;overflow=hidden;points=[[0,0.5],[1,0.5]];portConstraint=eastwest;rotatable=0;whiteSpace=wrap;html=1;" vertex="1" parent="DMiEMKyrubhrGU7H5FuC-9">
          <mxGeometry y="1440" width="140" height="30" as="geometry" />
        </mxCell>
        <mxCell id="DMiEMKyrubhrGU7H5FuC-58" value="8_pick" style="text;strokeColor=none;fillColor=none;align=left;verticalAlign=middle;spacingLeft=4;spacingRight=4;overflow=hidden;points=[[0,0.5],[1,0.5]];portConstraint=eastwest;rotatable=0;whiteSpace=wrap;html=1;" vertex="1" parent="DMiEMKyrubhrGU7H5FuC-9">
          <mxGeometry y="1470" width="140" height="30" as="geometry" />
        </mxCell>
        <mxCell id="DMiEMKyrubhrGU7H5FuC-59" value="8_win" style="text;strokeColor=none;fillColor=none;align=left;verticalAlign=middle;spacingLeft=4;spacingRight=4;overflow=hidden;points=[[0,0.5],[1,0.5]];portConstraint=eastwest;rotatable=0;whiteSpace=wrap;html=1;" vertex="1" parent="DMiEMKyrubhrGU7H5FuC-9">
          <mxGeometry y="1500" width="140" height="30" as="geometry" />
        </mxCell>
        <mxCell id="DMiEMKyrubhrGU7H5FuC-60" value="turbo_picks" style="text;strokeColor=none;fillColor=none;align=left;verticalAlign=middle;spacingLeft=4;spacingRight=4;overflow=hidden;points=[[0,0.5],[1,0.5]];portConstraint=eastwest;rotatable=0;whiteSpace=wrap;html=1;" vertex="1" parent="DMiEMKyrubhrGU7H5FuC-9">
          <mxGeometry y="1530" width="140" height="30" as="geometry" />
        </mxCell>
        <mxCell id="DMiEMKyrubhrGU7H5FuC-61" value="turbo_picks_trend" style="text;strokeColor=none;fillColor=none;align=left;verticalAlign=middle;spacingLeft=4;spacingRight=4;overflow=hidden;points=[[0,0.5],[1,0.5]];portConstraint=eastwest;rotatable=0;whiteSpace=wrap;html=1;" vertex="1" parent="DMiEMKyrubhrGU7H5FuC-9">
          <mxGeometry y="1560" width="140" height="30" as="geometry" />
        </mxCell>
        <mxCell id="DMiEMKyrubhrGU7H5FuC-62" value="turbo_wins" style="text;strokeColor=none;fillColor=none;align=left;verticalAlign=middle;spacingLeft=4;spacingRight=4;overflow=hidden;points=[[0,0.5],[1,0.5]];portConstraint=eastwest;rotatable=0;whiteSpace=wrap;html=1;" vertex="1" parent="DMiEMKyrubhrGU7H5FuC-9">
          <mxGeometry y="1590" width="140" height="30" as="geometry" />
        </mxCell>
        <mxCell id="DMiEMKyrubhrGU7H5FuC-63" value="turbo_wins_trend" style="text;strokeColor=none;fillColor=none;align=left;verticalAlign=middle;spacingLeft=4;spacingRight=4;overflow=hidden;points=[[0,0.5],[1,0.5]];portConstraint=eastwest;rotatable=0;whiteSpace=wrap;html=1;" vertex="1" parent="DMiEMKyrubhrGU7H5FuC-9">
          <mxGeometry y="1620" width="140" height="30" as="geometry" />
        </mxCell>
        <mxCell id="DMiEMKyrubhrGU7H5FuC-64" value="pro_pick" style="text;strokeColor=none;fillColor=none;align=left;verticalAlign=middle;spacingLeft=4;spacingRight=4;overflow=hidden;points=[[0,0.5],[1,0.5]];portConstraint=eastwest;rotatable=0;whiteSpace=wrap;html=1;" vertex="1" parent="DMiEMKyrubhrGU7H5FuC-9">
          <mxGeometry y="1650" width="140" height="30" as="geometry" />
        </mxCell>
        <mxCell id="DMiEMKyrubhrGU7H5FuC-65" value="pro_win" style="text;strokeColor=none;fillColor=none;align=left;verticalAlign=middle;spacingLeft=4;spacingRight=4;overflow=hidden;points=[[0,0.5],[1,0.5]];portConstraint=eastwest;rotatable=0;whiteSpace=wrap;html=1;" vertex="1" parent="DMiEMKyrubhrGU7H5FuC-9">
          <mxGeometry y="1680" width="140" height="30" as="geometry" />
        </mxCell>
        <mxCell id="DMiEMKyrubhrGU7H5FuC-66" value="pro_ban" style="text;strokeColor=none;fillColor=none;align=left;verticalAlign=middle;spacingLeft=4;spacingRight=4;overflow=hidden;points=[[0,0.5],[1,0.5]];portConstraint=eastwest;rotatable=0;whiteSpace=wrap;html=1;" vertex="1" parent="DMiEMKyrubhrGU7H5FuC-9">
          <mxGeometry y="1710" width="140" height="30" as="geometry" />
        </mxCell>
        <mxCell id="DMiEMKyrubhrGU7H5FuC-67" value="pub_pick" style="text;strokeColor=none;fillColor=none;align=left;verticalAlign=middle;spacingLeft=4;spacingRight=4;overflow=hidden;points=[[0,0.5],[1,0.5]];portConstraint=eastwest;rotatable=0;whiteSpace=wrap;html=1;" vertex="1" parent="DMiEMKyrubhrGU7H5FuC-9">
          <mxGeometry y="1740" width="140" height="30" as="geometry" />
        </mxCell>
        <mxCell id="DMiEMKyrubhrGU7H5FuC-68" value="pub_pick_trend" style="text;strokeColor=none;fillColor=none;align=left;verticalAlign=middle;spacingLeft=4;spacingRight=4;overflow=hidden;points=[[0,0.5],[1,0.5]];portConstraint=eastwest;rotatable=0;whiteSpace=wrap;html=1;" vertex="1" parent="DMiEMKyrubhrGU7H5FuC-9">
          <mxGeometry y="1770" width="140" height="30" as="geometry" />
        </mxCell>
        <mxCell id="DMiEMKyrubhrGU7H5FuC-69" value="pub_win" style="text;strokeColor=none;fillColor=none;align=left;verticalAlign=middle;spacingLeft=4;spacingRight=4;overflow=hidden;points=[[0,0.5],[1,0.5]];portConstraint=eastwest;rotatable=0;whiteSpace=wrap;html=1;" vertex="1" parent="DMiEMKyrubhrGU7H5FuC-9">
          <mxGeometry y="1800" width="140" height="30" as="geometry" />
        </mxCell>
        <mxCell id="DMiEMKyrubhrGU7H5FuC-70" value="pub_win_trend" style="text;strokeColor=none;fillColor=none;align=left;verticalAlign=middle;spacingLeft=4;spacingRight=4;overflow=hidden;points=[[0,0.5],[1,0.5]];portConstraint=eastwest;rotatable=0;whiteSpace=wrap;html=1;" vertex="1" parent="DMiEMKyrubhrGU7H5FuC-9">
          <mxGeometry y="1830" width="140" height="30" as="geometry" />
        </mxCell>
        <mxCell id="DMiEMKyrubhrGU7H5FuC-71" value="publicmatches" style="swimlane;fontStyle=0;childLayout=stackLayout;horizontal=1;startSize=30;horizontalStack=0;resizeParent=1;resizeParentMax=0;resizeLast=0;collapsible=1;marginBottom=0;whiteSpace=wrap;html=1;" vertex="1" parent="1">
          <mxGeometry x="990" y="40" width="140" height="390" as="geometry" />
        </mxCell>
        <mxCell id="DMiEMKyrubhrGU7H5FuC-72" value="match_id" style="text;strokeColor=none;fillColor=none;align=left;verticalAlign=middle;spacingLeft=4;spacingRight=4;overflow=hidden;points=[[0,0.5],[1,0.5]];portConstraint=eastwest;rotatable=0;whiteSpace=wrap;html=1;" vertex="1" parent="DMiEMKyrubhrGU7H5FuC-71">
          <mxGeometry y="30" width="140" height="30" as="geometry" />
        </mxCell>
        <mxCell id="DMiEMKyrubhrGU7H5FuC-73" value="match_seq_num" style="text;strokeColor=none;fillColor=none;align=left;verticalAlign=middle;spacingLeft=4;spacingRight=4;overflow=hidden;points=[[0,0.5],[1,0.5]];portConstraint=eastwest;rotatable=0;whiteSpace=wrap;html=1;" vertex="1" parent="DMiEMKyrubhrGU7H5FuC-71">
          <mxGeometry y="60" width="140" height="30" as="geometry" />
        </mxCell>
        <mxCell id="DMiEMKyrubhrGU7H5FuC-74" value="radiant_win" style="text;strokeColor=none;fillColor=none;align=left;verticalAlign=middle;spacingLeft=4;spacingRight=4;overflow=hidden;points=[[0,0.5],[1,0.5]];portConstraint=eastwest;rotatable=0;whiteSpace=wrap;html=1;" vertex="1" parent="DMiEMKyrubhrGU7H5FuC-71">
          <mxGeometry y="90" width="140" height="30" as="geometry" />
        </mxCell>
        <mxCell id="DMiEMKyrubhrGU7H5FuC-75" value="start_time" style="text;strokeColor=none;fillColor=none;align=left;verticalAlign=middle;spacingLeft=4;spacingRight=4;overflow=hidden;points=[[0,0.5],[1,0.5]];portConstraint=eastwest;rotatable=0;whiteSpace=wrap;html=1;" vertex="1" parent="DMiEMKyrubhrGU7H5FuC-71">
          <mxGeometry y="120" width="140" height="30" as="geometry" />
        </mxCell>
        <mxCell id="DMiEMKyrubhrGU7H5FuC-76" value="duration" style="text;strokeColor=none;fillColor=none;align=left;verticalAlign=middle;spacingLeft=4;spacingRight=4;overflow=hidden;points=[[0,0.5],[1,0.5]];portConstraint=eastwest;rotatable=0;whiteSpace=wrap;html=1;" vertex="1" parent="DMiEMKyrubhrGU7H5FuC-71">
          <mxGeometry y="150" width="140" height="30" as="geometry" />
        </mxCell>
        <mxCell id="DMiEMKyrubhrGU7H5FuC-77" value="lobby_type" style="text;strokeColor=none;fillColor=none;align=left;verticalAlign=middle;spacingLeft=4;spacingRight=4;overflow=hidden;points=[[0,0.5],[1,0.5]];portConstraint=eastwest;rotatable=0;whiteSpace=wrap;html=1;" vertex="1" parent="DMiEMKyrubhrGU7H5FuC-71">
          <mxGeometry y="180" width="140" height="30" as="geometry" />
        </mxCell>
        <mxCell id="DMiEMKyrubhrGU7H5FuC-78" value="game_mode" style="text;strokeColor=none;fillColor=none;align=left;verticalAlign=middle;spacingLeft=4;spacingRight=4;overflow=hidden;points=[[0,0.5],[1,0.5]];portConstraint=eastwest;rotatable=0;whiteSpace=wrap;html=1;" vertex="1" parent="DMiEMKyrubhrGU7H5FuC-71">
          <mxGeometry y="210" width="140" height="30" as="geometry" />
        </mxCell>
        <mxCell id="DMiEMKyrubhrGU7H5FuC-81" value="avg_rank_tier" style="text;strokeColor=none;fillColor=none;align=left;verticalAlign=middle;spacingLeft=4;spacingRight=4;overflow=hidden;points=[[0,0.5],[1,0.5]];portConstraint=eastwest;rotatable=0;whiteSpace=wrap;html=1;" vertex="1" parent="DMiEMKyrubhrGU7H5FuC-71">
          <mxGeometry y="240" width="140" height="30" as="geometry" />
        </mxCell>
        <mxCell id="DMiEMKyrubhrGU7H5FuC-80" value="num_rank_tier" style="text;strokeColor=none;fillColor=none;align=left;verticalAlign=middle;spacingLeft=4;spacingRight=4;overflow=hidden;points=[[0,0.5],[1,0.5]];portConstraint=eastwest;rotatable=0;whiteSpace=wrap;html=1;" vertex="1" parent="DMiEMKyrubhrGU7H5FuC-71">
          <mxGeometry y="270" width="140" height="30" as="geometry" />
        </mxCell>
        <mxCell id="DMiEMKyrubhrGU7H5FuC-79" value="cluster" style="text;strokeColor=none;fillColor=none;align=left;verticalAlign=middle;spacingLeft=4;spacingRight=4;overflow=hidden;points=[[0,0.5],[1,0.5]];portConstraint=eastwest;rotatable=0;whiteSpace=wrap;html=1;" vertex="1" parent="DMiEMKyrubhrGU7H5FuC-71">
          <mxGeometry y="300" width="140" height="30" as="geometry" />
        </mxCell>
        <mxCell id="DMiEMKyrubhrGU7H5FuC-84" value="radiant_team" style="text;strokeColor=none;fillColor=none;align=left;verticalAlign=middle;spacingLeft=4;spacingRight=4;overflow=hidden;points=[[0,0.5],[1,0.5]];portConstraint=eastwest;rotatable=0;whiteSpace=wrap;html=1;" vertex="1" parent="DMiEMKyrubhrGU7H5FuC-71">
          <mxGeometry y="330" width="140" height="30" as="geometry" />
        </mxCell>
        <mxCell id="DMiEMKyrubhrGU7H5FuC-83" value="dire_team" style="text;strokeColor=none;fillColor=none;align=left;verticalAlign=middle;spacingLeft=4;spacingRight=4;overflow=hidden;points=[[0,0.5],[1,0.5]];portConstraint=eastwest;rotatable=0;whiteSpace=wrap;html=1;" vertex="1" parent="DMiEMKyrubhrGU7H5FuC-71">
          <mxGeometry y="360" width="140" height="30" as="geometry" />
        </mxCell>
        <mxCell id="DMiEMKyrubhrGU7H5FuC-85" value="lobby_type" style="swimlane;fontStyle=0;childLayout=stackLayout;horizontal=1;startSize=30;horizontalStack=0;resizeParent=1;resizeParentMax=0;resizeLast=0;collapsible=1;marginBottom=0;whiteSpace=wrap;html=1;" vertex="1" parent="1">
          <mxGeometry x="1350" width="140" height="120" as="geometry" />
        </mxCell>
        <mxCell id="DMiEMKyrubhrGU7H5FuC-86" value="id" style="text;strokeColor=none;fillColor=none;align=left;verticalAlign=middle;spacingLeft=4;spacingRight=4;overflow=hidden;points=[[0,0.5],[1,0.5]];portConstraint=eastwest;rotatable=0;whiteSpace=wrap;html=1;" vertex="1" parent="DMiEMKyrubhrGU7H5FuC-85">
          <mxGeometry y="30" width="140" height="30" as="geometry" />
        </mxCell>
        <mxCell id="DMiEMKyrubhrGU7H5FuC-87" value="name" style="text;strokeColor=none;fillColor=none;align=left;verticalAlign=middle;spacingLeft=4;spacingRight=4;overflow=hidden;points=[[0,0.5],[1,0.5]];portConstraint=eastwest;rotatable=0;whiteSpace=wrap;html=1;" vertex="1" parent="DMiEMKyrubhrGU7H5FuC-85">
          <mxGeometry y="60" width="140" height="30" as="geometry" />
        </mxCell>
        <mxCell id="DMiEMKyrubhrGU7H5FuC-88" value="balanced" style="text;strokeColor=none;fillColor=none;align=left;verticalAlign=middle;spacingLeft=4;spacingRight=4;overflow=hidden;points=[[0,0.5],[1,0.5]];portConstraint=eastwest;rotatable=0;whiteSpace=wrap;html=1;" vertex="1" parent="DMiEMKyrubhrGU7H5FuC-85">
          <mxGeometry y="90" width="140" height="30" as="geometry" />
        </mxCell>
      </root>
    </mxGraphModel>
  </diagram>
</mxfile>
